<svg xmlns="http://www.w3.org/2000/svg" width="429" height="393"><path fill="#F8B5A9" d="M95.121 9.977C119.811 23.425 129.963 48.81 139 74c5.177-1.944 10.022-4.484 14.941-6.99A194.585 194.585 0 0 1 167 61v-2l3.438-.25c5.568-.602 10.932-1.94 16.357-3.29 6.558-1.617 12.861-2.599 19.643-2.523l3.183.028L212 53v-2h12v2l1.703-.992c2.566-1.126 4.265-1.215 7.047-1.133l2.422.055L237 51c-1 2-1 2-2 3l1.809.078c7.665.501 14.848 2.135 22.273 3.984 3.285.813 6.57 1.433 9.918 1.938v2l3.219 1.574C279.359 67.09 286.366 70.577 293 75l.306-1.657c1.161-5.78 2.978-10.876 5.444-16.218l1.086-2.384c8.086-17.557 19.041-38.26 38.012-45.886 6.76-1.834 15.068-2.24 21.59.645 6.242 3.804 10.948 9.599 13.128 16.574C374.525 34.772 371.183 43.43 367 51l1.934.629c2.55.95 4.784 1.881 7.066 3.371 1.063 3.688 1.063 3.688 1 7v1l2.64-.727c9.005-2.24 16.852-3.215 25.52.704C410.807 66.5 412.964 71.892 415 78c.728 6.85-.851 12.554-3 19l-.348 2.168C411 101 411 101 409.16 102.012L407 103c-3.948 3.846-7.41 8.124-10 13l2.125 2.563C401 122 401 122 400.375 125.686 399 129 399 129 397 132l2.344.48c9.814 2.199 16.762 5.2 22.656 13.52 2.202 4.183 2.527 8.353 3 13h-2l-.125 2.438c-2.164 8.81-7.54 13.56-15.094 18.152-4.385 2.223-7.84 3.41-12.781 3.41l.5 3.75c.377 2.828.5 5.366.5 8.25h-2l-.625 1.688c-2.438 4.1-5.858 6.571-10.063 8.625-10.647 2.21-19.475-.317-29.312-4.313h-2l-1 2-1-5h-2a90.488 90.488 0 0 1-4-4l-.125 3.125c-1.25 9.881-6.09 18.774-12.875 25.875l-1 3c-2.563 1.188-2.563 1.188-5 2v2c-7.389 7.253-16.797 12.398-26 17l.48 1.738c.514 1.869 1.022 3.739 1.528 5.61.733 2.699 1.48 5.393 2.234 8.086C305.964 272.28 308.01 281.81 309 292l.336 3.078c1.907 20.097.91 40.318-3.336 60.047l-.503 2.354c-.429 1.858-.954 3.693-1.497 5.521l-2 1-.902 2.746c-2.273 6.738-7.335 12.549-13.348 16.317-5.901 2.863-12.603 3.805-19.047 2.457-3.387-1.189-6.372-2.884-9.453-4.707-3.212-2.138-3.212-2.138-7.25-1.813l.125-2.875c.225-3.227.225-3.227-2.125-5.125a150.086 150.086 0 0 0-6-1l-2-1a267.2 267.2 0 0 0-5 1c-1.838.078-3.68.108-5.52.098l-3.095-.01-3.197-.026-3.256-.013c-2.644-.012-5.288-.028-7.932-.049l-.367 2.309c-1.037 4.407-3.76 7.367-7.38 9.925-5.253 3.119-9.22 3.906-15.253 3.891l-3.125.008c-2.489-.115-4.491-.486-6.875-1.133h-3l1-2-2.188-.813C174 381 174 381 171.438 379.313c-2.242-1.513-2.242-1.513-4.214-1.082-2.893 1.002-5.508 2.358-8.223 3.77-8.886 4.62-17.606 5.515-27.375 2.688C123.623 381.93 116.774 378.16 112 371a88.204 88.204 0 0 0-8.5-1.063 1194.57 1194.57 0 0 1-4.898-.464l-2.394-.23c-4.14-.455-8.15-1.327-12.208-2.243v-2l-2.11-.305c-12.03-2.893-22.242-12.062-31.066-20.312C48.868 342.9 47.4 342.413 45 342v-4c-1.318-2.277-1.318-2.277-3.125-4.563C38.051 328.212 34.98 322.741 32 317l-2 1-2-1 .105-1.95c.201-6.697-.73-12.526-2.37-19.01-.89-3.683-1.366-7.274-1.735-11.04v8l-2-4-1.188-2c-1.011-2.49-.506-3.456.188-6-.386-2.681-.386-2.681-1-5h2l-1-1.75C20 272 20 272 20 268l1.93-1.336c2.38-1.567 2.38-1.567 2.828-4.766l.367-3.523c.23-2.132.508-4.262.875-6.375l2-1v-8l2 1 2.063-3.188c4.551-6.228 8.723-8.852 16.374-10.312 7.49-.902 11.444.566 17.688 4.438C70.521 238.931 72.55 244.714 75 250a839.786 839.786 0 0 0 4.063 8.313l.958 1.991c4.815 9.787 10.324 16.44 20.846 20.071 3.669 1.075 7.384 1.887 11.133 2.625.26-.695.52-1.39.79-2.105 5.094-12.178 13.159-22.563 21.21-32.895l-4-1v-2l-2.02-1.031C116.413 237.886 107.445 230.985 99 221l-2-2h-3l-.313-2.438c-.68-3.525-1.685-6.72-2.855-10.105C89.438 202.34 88.227 198.169 87 194l-1.617 1.137C74.77 202.427 65.118 207.228 52 207c-5.825-1.4-9.731-3.9-13-9l-2-3c-.88-4.316-1.163-7.735 0-12l-2.938-.313C26.742 181.605 20.78 179.944 16 174c-6-8.282-6-8.282-6-11H7v-4H4v-2h4l.313-3.625c.95-7.122 3.993-11.3 9.433-15.828C22.571 134.236 28.116 132.43 34 133v-2h-3v-3l-2 1c.598-4.143 2.007-7.182 4.063-10.813l1.66-2.957L36 113l-1.809-.836c-2.063-1.096-3.537-2.224-5.254-3.789-2.696-2.69-2.696-2.69-5.937-2.375l2-3-4-2-1 2v-8a94.066 94.066 0 0 0-1.5-4.688l-.844-2.449L17 86h-2V76h2l.953-2.082 1.297-2.73 1.266-2.708C22.08 65.865 23.404 64.563 26 63h2v-4c3.292-.058 6.583-.094 9.875-.125.937-.017 1.874-.034 2.84-.05l2.715-.02 2.507-.032C48 59 48 59 50 61c2.075 1.224 2.075 1.224 5 1l.125-3.313C56 55 56 55 58.875 53.063 62 52 62 52 65 52l-2-4h-2c-1-3-1-3-1-7l-1.063-3.063c-1.676-5.662-1.368-11.935 1.18-17.28a73.853 73.853 0 0 1 2.63-3.903c1.332-1.759 1.332-1.759 2.304-3.938C66 11 66 11 67.75 10.375L70 10l2.742-1.004c7.089-2.167 15.557-2.124 22.38.98ZM40 60v1h6v-1h-6ZM8 160l1 2Zm88 56 1 2Zm-73 51 1 2Zm0 3v9h1v-9h-1Zm6 40 1 5 1-3-2-2Z"/><path fill="#261C1C" d="M95.121 9.977C119.811 23.425 129.963 48.81 139 74c5.177-1.944 10.022-4.484 14.941-6.99A194.585 194.585 0 0 1 167 61v-2l3.438-.25c5.568-.602 10.932-1.94 16.357-3.29 6.558-1.617 12.861-2.599 19.643-2.523l3.183.028L212 53v-2h12v2l1.703-.992c2.566-1.126 4.265-1.215 7.047-1.133l2.422.055L237 51c-1 2-1 2-2 3l1.809.078c7.665.501 14.848 2.135 22.273 3.984 3.285.813 6.57 1.433 9.918 1.938v2l3.219 1.574C279.359 67.09 286.366 70.577 293 75l.306-1.657c1.161-5.78 2.978-10.876 5.444-16.218l1.086-2.384c8.086-17.557 19.041-38.26 38.012-45.886 6.76-1.834 15.068-2.24 21.59.645 6.242 3.804 10.948 9.599 13.128 16.574C374.525 34.772 371.183 43.43 367 51l1.934.629c2.55.95 4.784 1.881 7.066 3.371 1.063 3.688 1.063 3.688 1 7v1l2.64-.727c9.005-2.24 16.852-3.215 25.52.704C410.807 66.5 412.964 71.892 415 78c.728 6.85-.851 12.554-3 19l-.348 2.168C411 101 411 101 409.16 102.012L407 103c-3.948 3.846-7.41 8.124-10 13l2.125 2.563C401 122 401 122 400.375 125.686 399 129 399 129 397 132l2.344.48c9.814 2.199 16.762 5.2 22.656 13.52 2.202 4.183 2.527 8.353 3 13h-2l-.125 2.438c-2.164 8.81-7.54 13.56-15.094 18.152-4.385 2.223-7.84 3.41-12.781 3.41l.5 3.75c.377 2.828.5 5.366.5 8.25h-2l-.625 1.688c-2.438 4.1-5.858 6.571-10.063 8.625-10.647 2.21-19.475-.317-29.312-4.313h-2l-1 2-1-5h-2a90.488 90.488 0 0 1-4-4l-.125 3.125c-1.25 9.881-6.09 18.774-12.875 25.875l-1 3c-2.563 1.188-2.563 1.188-5 2v2c-7.389 7.253-16.797 12.398-26 17l.48 1.738c.514 1.869 1.022 3.739 1.528 5.61.733 2.699 1.48 5.393 2.234 8.086C305.964 272.28 308.01 281.81 309 292l.336 3.078c1.907 20.097.91 40.318-3.336 60.047l-.503 2.354c-.429 1.858-.954 3.693-1.497 5.521l-2 1-.902 2.746c-2.273 6.738-7.335 12.549-13.348 16.317-5.901 2.863-12.603 3.805-19.047 2.457-3.387-1.189-6.372-2.884-9.453-4.707-3.212-2.138-3.212-2.138-7.25-1.813l.125-2.875c.225-3.227.225-3.227-2.125-5.125a150.086 150.086 0 0 0-6-1l-2-1a267.2 267.2 0 0 0-5 1c-1.838.078-3.68.108-5.52.098l-3.095-.01-3.197-.026-3.256-.013c-2.644-.012-5.288-.028-7.932-.049l-.367 2.309c-1.037 4.407-3.76 7.367-7.38 9.925-5.253 3.119-9.22 3.906-15.253 3.891l-3.125.008c-2.489-.115-4.491-.486-6.875-1.133h-3l1-2-2.188-.813C174 381 174 381 171.438 379.313c-2.242-1.513-2.242-1.513-4.214-1.082-2.893 1.002-5.508 2.358-8.223 3.77-8.886 4.62-17.606 5.515-27.375 2.688C123.623 381.93 116.774 378.16 112 371a88.204 88.204 0 0 0-8.5-1.063 1194.57 1194.57 0 0 1-4.898-.464l-2.394-.23c-4.14-.455-8.15-1.327-12.208-2.243v-2l-2.11-.305c-12.03-2.893-22.242-12.062-31.066-20.312C48.868 342.9 47.4 342.413 45 342v-4c-1.318-2.277-1.318-2.277-3.125-4.563C38.051 328.212 34.98 322.741 32 317l-2 1-2-1 .105-1.95c.201-6.697-.73-12.526-2.37-19.01-.89-3.683-1.366-7.274-1.735-11.04v8l-2-4-1.188-2c-1.011-2.49-.506-3.456.188-6-.386-2.681-.386-2.681-1-5h2l-1-1.75C20 272 20 272 20 268l1.93-1.336c2.38-1.567 2.38-1.567 2.828-4.766l.367-3.523c.23-2.132.508-4.262.875-6.375l2-1v-8l2 1 2.063-3.188c4.551-6.228 8.723-8.852 16.374-10.312 7.49-.902 11.444.566 17.688 4.438C70.521 238.931 72.55 244.714 75 250a839.786 839.786 0 0 0 4.063 8.313l.958 1.991c4.815 9.787 10.324 16.44 20.846 20.071 3.669 1.075 7.384 1.887 11.133 2.625.26-.695.52-1.39.79-2.105 5.094-12.178 13.159-22.563 21.21-32.895l-4-1v-2l-2.02-1.031C116.413 237.886 107.445 230.985 99 221l-2-2h-3l-.313-2.438c-.68-3.525-1.685-6.72-2.855-10.105C89.438 202.34 88.227 198.169 87 194l-1.617 1.137C74.77 202.427 65.118 207.228 52 207c-5.825-1.4-9.731-3.9-13-9l-2-3c-.88-4.316-1.163-7.735 0-12l-2.938-.313C26.742 181.605 20.78 179.944 16 174c-6-8.282-6-8.282-6-11H7v-4H4v-2h4l.313-3.625c.95-7.122 3.993-11.3 9.433-15.828C22.571 134.236 28.116 132.43 34 133v-2h-3v-3l-2 1c.598-4.143 2.007-7.182 4.063-10.813l1.66-2.957L36 113l-1.809-.836c-2.063-1.096-3.537-2.224-5.254-3.789-2.696-2.69-2.696-2.69-5.937-2.375l2-3-4-2-1 2v-8a94.066 94.066 0 0 0-1.5-4.688l-.844-2.449L17 86h-2V76h2l.953-2.082 1.297-2.73 1.266-2.708C22.08 65.865 23.404 64.563 26 63h2v-4c3.292-.058 6.583-.094 9.875-.125.937-.017 1.874-.034 2.84-.05l2.715-.02 2.507-.032C48 59 48 59 50 61c2.075 1.224 2.075 1.224 5 1l.125-3.313C56 55 56 55 58.875 53.063 62 52 62 52 65 52l-2-4h-2c-1-3-1-3-1-7l-1.063-3.063c-1.676-5.662-1.368-11.935 1.18-17.28a73.853 73.853 0 0 1 2.63-3.903c1.332-1.759 1.332-1.759 2.304-3.938C66 11 66 11 67.75 10.375L70 10l2.742-1.004c7.089-2.167 15.557-2.124 22.38.98ZM40 60v1h6v-1h-6Zm131 14-2.695.895C146.738 82.688 125.908 100.565 114 120l-1.758 2.648c-5.395 8.526-8.533 17.69-11.242 27.352l-.598 2.11c-4.896 19.27-2.211 40.857 7.7 57.96C120.019 228.462 141.354 237.966 162 243l3.535.902c2.818.716 5.64 1.415 8.465 2.098l1 5c-4.552 3.524-8.49 3.555-14 3a94.485 94.485 0 0 1-6.86-1.66c-2.713-.431-4.52-.174-7.14.66-17.165 14.002-30.01 42.48-33 64-1.567 16.501-.551 34.43 10 48 5.103 5.386 12.782 8.183 20.125 8.5 4.867-.207 8.935-1.613 12.875-4.5 2.917-4.376 2.648-7.853 2-13-.933-3.336-1.972-6.603-3.067-9.888-3.08-9.352-4.725-18.338-2.933-28.112 1-1 1-1 4.563-1.063L161 317l.48 3.375c4.014 27.32 4.014 27.32 18.52 49.625 5.2 2.985 9.155 3.65 15 3 3.474-1.737 5.427-2.963 7.313-6.375 1.52-5.806 1.803-11.243 1.714-17.2l-.037-4.958c-.025-2.588-.053-5.175-.086-7.762-.03-2.51-.048-5.02-.064-7.53l-.04-2.348c-.019-3.828.023-5.562 2.2-8.827 2.5-.313 2.5-.313 5 0 3.71 3.71 3.222 8.296 3.5 13.355l.25 4.323.375 6.794c.121 2.19.248 4.38.375 6.571l.219 3.97c-.05 2.868-.05 2.868 1.281 3.987 10.38.664 22.046.97 31-5 .461-2.564.461-2.564.406-5.566l.067-3.413.027-3.584c.063-8.125.455-14.85 3.5-22.437 2.375-.188 2.375-.188 5 0 4.833 7.25 3.316 18.657 3.518 27.094-.247 13.443-.247 13.443 4.982 25.094 4.5 3.262 8.044 3.412 13.5 2.812 5.898-2.313 8.047-6.882 10.613-12.371 5.442-14.24 6.602-28.831 6.575-43.942l-.004-2.165c-.072-21.134-1.996-41.76-10.184-61.522l-3.613.29-4.7.335-2.38.195-2.295.157-2.11.158C269 253 269 253 266 251c-.188-2.625-.188-2.625 0-5 3.557-1.496 7.094-2.604 10.813-3.625 12.014-3.664 23.312-9.617 33.187-17.375l2.137-1.64C325.1 212.79 332.053 196.336 334 180c1.573-28.32-8.893-54.155-27.5-75.188A1009.152 1009.152 0 0 0 302 100l-1.82-2.05c-19.358-20.909-49.943-30.734-77.693-32.071-18.192-.677-34.35 2.178-51.487 8.121ZM8 160l1 2Zm88 56 1 2Zm-73 51 1 2Zm0 3v9h1v-9h-1Zm6 40 1 5 1-3-2-2Z"/><path fill="#F8B6AA" d="M56 245c5.223 4.406 7.597 10.13 9.938 16.375 2.826 7.08 5.63 13.132 11.062 18.625l1.758 1.871C86.115 289.028 96.029 293.045 106 295c-.588 5.18-1.44 10.153-2.563 15.25-3.163 16.042-1.677 31.078 2.563 46.75-20.45-1.87-37.91-12.07-51.02-27.729-12.336-15.459-17.145-32.879-17.23-52.459l-.063-3.54c-.045-10.145.72-19.382 7.91-27.03C49.033 243.2 51.717 243.858 56 245Z"/><path fill="#F16063" d="M89.566 22.766c19.089 8.483 28.799 34 35.935 52.353 2.703 7.161 2.703 7.161 1.91 9.96-1.84 2.507-3.92 4.577-6.161 6.734-3.992 3.905-7.695 7.883-11.25 12.187-16.346-7.827-31.672-21.995-43-36 1.875-3.875 1.875-3.875 3-5 2.428-.1 4.822-.139 7.25-.125l2.027-.012c3.701.008 7.126.259 10.723 1.137-2.714-4.12-5.447-8.218-8.297-12.246l-1.197-1.695c-1.147-1.619-2.301-3.234-3.455-4.848C73.492 39.639 71.247 34.78 72 28c3.582-7.49 10.09-7.465 17.566-5.234Z"/><path fill="#F06163" d="M355.813 23.938c2.692 2.538 3.116 3.38 3.5 7.062-.258 10.409-7.175 18.213-13.313 26a476.922 476.922 0 0 0-5 7l3.313-.5c13.873-1.71 13.873-1.71 18.687 1.5-.803 5.949-3.984 8.789-8 13l-1.527 1.684c-5.334 5.659-11.599 10.235-17.738 14.97a592.43 592.43 0 0 0-7.61 6.034l-2.43 1.949L324 104c-2.966-1.312-4.81-2.625-6.875-5.117l-1.547-1.84L314 95.125c-4.79-5.753-4.79-5.753-10-11.125 4.864-18.134 12.704-36.644 25-51l1.813-2.688c6.556-6.931 16.269-12.389 25-6.375Z"/><path fill="#F16063" d="M399.125 75.563C401 78 401 78 401.625 81.124 399.279 95.672 386.715 105.933 376 115l-2 1v2l2.371.621 3.067.817 3.058.808C385 121 385 121 386 122c.438 2.25.438 2.25 0 5-5.956 6.977-16.044 8.846-24.823 9.834-4.058.309-8.11.27-12.177.228l-2.637-.013c-2.12-.012-4.242-.03-6.363-.049l-.703-1.605a4246.105 4246.105 0 0 0-3.172-7.208l-1.105-2.525-1.075-2.432-.984-2.237c-1.018-2.227-1.018-2.227-2.961-4.993v-3a83.858 83.858 0 0 1 6.313-4.625c1.3-.898 2.598-1.8 3.894-2.703l1.96-1.365c5.683-4.05 10.98-8.632 16.169-13.291 10.404-9.275 26.014-22.841 40.789-15.454Z"/><path fill="#F06063" d="M47.934 74.918c9.946 3.915 17.319 9.25 25.053 16.548 4.382 4.08 9.008 7.775 13.763 11.409l2.111 1.621c4.556 3.446 9.246 6.56 14.139 9.504l-1.645 3.473-2.168 4.59-1.08 2.279A352.278 352.278 0 0 0 92 138c-14.766.81-33.452-.425-45.871-9.344L45 127l1-5 13-4c-1.161-3.484-2.038-4.015-4.938-6.125C44.407 104.536 34.974 96.922 31 85c-.671-6.155-.671-6.155 1.938-9.438 5.229-2.667 9.439-2.383 14.996-.644Z"/><path fill="#F06163" d="m40 145.625 2.795-.004c15.46.217 30.88 2.475 46.205 4.379l-.435 2.606c-.933 5.775-1.697 11.282-1.627 17.144-.352 5.03-1.385 7.532-4.876 11.188-7.212 6.247-15.483 11.931-25.25 12.375C53 193 53 193 50.938 191.813 50 190 50 190 49.938 187.75c1.305-3.378 3.224-5.485 5.687-8.102 1.6-1.713 1.6-1.713 2.375-4.648l-2.133-.043C43.504 174.36 31.974 170.84 23 162c-1.57-3.139-1.352-5.539-1-9 5.208-6.51 9.979-7.387 18-7.375Z"/><path fill="#F16163" d="m389.813 145.625 2.68-.079c5.907-.016 10.652.921 15.507 4.454 2.513 3.769 2.53 5.532 2 10-4.309 7.82-13.906 10.959-22.125 13.375-4.992.805-9.832.792-14.875.625 1.604 3.04 2.797 4.855 5.625 6.875C381 183 381 183 382 186.563c0 3.437 0 3.437-.938 5.375-3.5 1.803-6.303 1.836-10.062 1.062-5.017-1.827-9.492-4.183-14-7l-3.277-2.035c-5.825-4.585-7.83-7.98-8.844-15.235-.613-6.235-.852-12.466-.879-18.73l1.813-.152c2.792-.236 5.583-.479 8.375-.723l3.075-.269c5.152-.468 10.21-1.036 15.3-1.981 5.747-.943 11.436-1.16 17.25-1.25Z"/><path fill="#231A1B" d="M286.313 153.563c4.677 4.242 7.436 10.198 7.925 16.511.168 8.158.054 14.359-5.699 20.48-4.688 4.213-8.324 4.78-14.523 4.653-4.898-.503-8.024-2.972-11.266-6.457-4.147-5.189-5.248-10.82-5.059-17.352.806-6.259 3.011-11.649 7.747-15.898 6.898-5.148 13.037-5.635 20.875-1.938Z"/><path fill="#231B1B" d="M163.875 153.188c5.948 5.073 8.602 10.845 9.414 18.558.177 5.8-.139 11.244-3.289 16.254-3.086 3.271-6.53 6.77-11.172 7.203-5.38.098-9.27-.023-13.828-3.203-6.559-6.857-7.462-12.283-7.316-21.547.657-7.174 3.86-11.816 9.316-16.453 5.154-3.105 11.381-3.082 16.875-.813Z"/><path fill="#231A1B" d="M188 185c5.58.215 8.477 1.925 13 5 9.18 4.37 19.148 4.172 28.684 1.004 3.103-1.345 5.764-3.17 8.558-5.059 1.758-.945 1.758-.945 4.696-.82C245 186 245 186 246 187c.471 4.083.55 6.23-1.875 9.625-10.483 7.967-21.133 10.37-34.125 9.375-8.795-1.569-18.475-4.576-24-12-.438-3.688-.438-3.688 0-7l2-2Z"/><path fill="#F67D79" d="M139 186c2.75 2.875 2.75 2.875 5 6 2.35 1.073 4.443 1.499 7 2v2h3c-.368 7.235-.368 7.235-3.375 10.875-4.623 3.742-7 4.441-12.938 4.5l-3.925.086c-5.167-.633-8.04-2.677-11.606-6.371-2.255-4.076-1.888-8.595-1.156-13.09 4.865-6.4 10.28-7.225 18-6Z"/><path fill="#F67E79" d="M299.684 185.508c4 .85 7.302 2.745 10.316 5.492 2.282 3.744 2.528 6.624 2 11-2.97 4.54-5.841 7.28-11 9-7.13.874-12.27.443-18-4-2.48-2.99-3.872-4.877-4.313-8.75C279 196 279 196 280 194c1.7-.7 3.402-1.397 5.113-2.07 2.22-.98 2.22-.98 4.762-3.618 3.605-2.667 5.436-3.056 9.809-2.804Z"/><path fill="#75534A" d="m23 265 2 1c.027 2.98.047 5.958.063 8.938l.025 2.576.01 2.45.016 2.27C25 284 25 284 24 285a59.19 59.19 0 0 0-.063 4.063L24 293l-2-4-1.188-2c-1.011-2.49-.506-3.456.188-6-.386-2.681-.386-2.681-1-5h2l-1-1.75C20 272 20 272 20 268c1.5-1.75 1.5-1.75 3-3Zm0 2 1 2Zm0 3v9h1v-9h-1Z"/><path fill="#5B3C35" d="M212 51h12v2l1.703-.992c2.566-1.126 4.265-1.215 7.047-1.133l2.422.055L237 51c-1 2-1 2-2 3-2.594.089-5.16.115-7.754.098l-2.35-.005c-2.486-.005-4.972-.018-7.458-.03-1.682-.006-3.364-.01-5.045-.014-4.131-.011-8.262-.028-12.393-.049v-1h12v-2Z"/><path fill="#170D0E" d="M106 207c2.838 2.713 5.14 5.511 7.438 8.688 4.225 5.391 9.119 8.828 14.804 12.5C131 230 131 230 133 232c-6.707 0-13.26-6.184-17.941-10.77-4.305-4.58-7.381-8.078-9.059-14.23Z"/><path fill="#3A2C27" d="m177 382 3.625.5c6.445.732 12.898.583 19.375.5-1.129 1.484-1.129 1.484-3 3-2.777.328-2.777.328-5.938.25-1.04-.015-2.08-.03-3.152-.047-2.469-.172-4.537-.567-6.91-1.203h-3l1-2-2-1Z"/><path fill="#F57778" d="M49 146v1l-3.473.332-4.59.48-2.279.213c-5.073.55-9.139 1.552-13.658 3.975-1.52 3.052-1.52 3.052-2 6h-1c0-3.293.149-5.894 2.215-8.578 6.89-5.438 16.53-3.819 24.785-3.422Z"/><path fill="#362423" d="M59 23h3c.054 2.625.094 5.25.125 7.875l.05 2.262c.018 1.955-.072 3.91-.175 5.863l-2 2c-2.355-6.234-1.876-11.457-1-18Z"/><path fill="#50352F" d="M32 120h1l.313 3.25c.661 3.608 1.262 5.114 3.687 7.75l-2 3c-3.125.188-3.125.188-6 0v-1h5v-2h-3v-3l-2 1c.557-3.344 1.352-6.033 3-9Z"/><path fill="#130B0B" d="M47 318a69.444 69.444 0 0 1 7.313 8.25c3.384 4.417 6.974 8.608 10.687 12.75-3 0-3 0-5.305-2.125C47 322.675 47 322.675 47 318Z"/><path fill="#FAD2C4" d="M293 164c2.353 2.353 2.262 2.868 2.344 6.063l.09 2.414.132 5.046.09 2.415.057 2.214c.139 2.093.139 2.093 2.287 3.848l-7 2 .992-2.941c1.246-4.36 1.233-8.493 1.133-12.996l-.027-2.362c-.024-1.9-.06-3.8-.098-5.701Z"/><path fill="#EED2C5" d="M102 347c2.952 2.952 3.087 5.955 4 10-6.195-.416-11.267-1.603-17-4 3.475-1.158 5.137-.773 8.688-.063l3.011.59L103 354l-1-7Z"/><path fill="#0B090A" d="m344 59 1 2 2.738-.07 3.575-.055 3.55-.07C358 61 358 61 361 63l-20 1c2-4 2-4 3-5Z"/><path fill="#F6CCC0" d="M101 179h1l.184 2.598c.427 5.838.875 11.623 1.816 17.402-3.58-3.58-4.124-8.337-4.188-13.25C100 182 100 182 101 179Z"/><path fill="#332524" d="M26 276h1c.083 4.833-.047 9.237-1 14h2l-1 9h-1c-.906-4.632-1.134-9.034-1.125-13.75l-.008-3.984C25 278 25 278 26 276Z"/><path fill="#392828" d="M96 162h1l1 7h1c.08 1.79.14 3.583.188 5.375l.105 3.023L99 180l-3 2v-20Z"/><path fill="#583F39" d="m27 299 1 2h2c1.17 4.29.623 7.642 0 12 .36 2.812.36 2.812 1 5l-3-1 .035-2.16c.051-5.403-.089-10.518-1.035-15.84Z"/><path fill="#F3D6CA" d="m240 199 2 1c-4.78 5.178-8.64 5.644-15.586 5.957L224 206c2.881-1.92 5.315-2.925 8.563-4.063 3.784-1.313 3.784-1.313 7.437-2.937Z"/><path fill="#352725" d="M74 253h2a407.78 407.78 0 0 1 2.563 4.813l1.44 2.707C81 263 81 263 80 266c-3.157-3.909-6-7.861-6-13Z"/><path fill="#0F0A0C" d="M373 174h13c-3.607 1.803-6.084 2.466-10 3l2 3c-1.938-.75-1.938-.75-4-2l-1-4Z"/><path fill="#F0BBAF" d="M137 179c1.972 1.972 2.769 3.388 3.938 5.875 1.44 2.968 2.939 5.577 5.062 8.125-3.423-1.417-4.825-3.068-7-6l-3-1 1-7Z"/><path fill="#F4787B" d="M75 150h14l-2 9h-1l-1-7-10-1v-1Z"/><path fill="#302423" d="M316 232h4c-1.503 4.208-4.233 5.803-8 8h-2l1-3c2.563-1.188 2.563-1.188 5-2v-3Z"/><path fill="#EAA599" d="M331 164h3c.042 2.333.04 4.667 0 7l-1 1a85.688 85.688 0 0 0-.563 4.563l-.253 2.503L332 181h-1v-17Z"/><path fill="#382726" d="m269 60-2 1 1 3-10-3v-1c3.982-1.054 6.982-.841 11 0Z"/><path fill="#4F3B34" d="M153 383v2c-3.462 1.067-6.64 1.102-10.25 1.063l-3.266-.028L137 386v-1c1.728-.339 3.458-.67 5.188-1l2.917-.563c2.688-.406 5.183-.516 7.895-.437Z"/><path fill="#6B4E46" d="m251 364-1 7-6-1-1-3c6.875-3 6.875-3 8-3Z"/><path fill="#382624" d="M124 41c2.524 3.125 4.397 6.313 6 10l-1 2c-2.346-2.133-3.863-4.025-5-7-.125-2.75-.125-2.75 0-5Z"/><path fill="#402A26" d="M370 53c3.23.557 5.066 1.292 7 4 .188 2.688.188 2.688 0 5l-1-3h-2c-2.125-1.875-2.125-1.875-4-4v-2Z"/><path fill="#43312E" d="m47 338 5 1 1 3-7 1-1-3h2v-2Z"/><path fill="#3B2724" d="m399 120 2 3c-.84 3.432-1.485 5.485-4 8l-1-6 3 1-.563-1.875C398 122 398 122 399 120Z"/><path fill="#402B28" d="m65 50 1 3c-3.334 2.191-6.042 3.435-10 4v-2c5.625-3 5.625-3 9-3v-2Z"/><path fill="#171010" d="m310 224 2 1c-3.613 4.688-3.613 4.688-5 6h-3c1.393-3.367 2.979-4.986 6-7Z"/><path fill="#452F29" d="M395 187c.826 2.892 1 4.887 1 8h-2l-1 3c-.981-3.053-.981-4.947 0-8h2v-3Z"/><path fill="#F67675" d="m367 84 2 1-1.875.75c-2.275 1.074-2.275 1.074-3.125 3.313-1 1.937-1 1.937-3.125 2.687L359 92c4.625-5.75 4.625-5.75 8-8Z"/><path fill="#362926" d="M73 359c3.688.498 5.605 1.1 8 4l-2 1a100.644 100.644 0 0 1-6-3v-2Z"/><path fill="#352626" d="M212 324h3v7l-3 1v-8Z"/><path fill="#302321" d="M81 196c-1.251 3.754-2.565 4.24-6 6h-2v-2c5.412-4 5.412-4 8-4Z"/><path fill="#342523" d="M283 70c2.915 1.074 4.778 1.778 7 4l-5 1-2-5Z"/><path fill="#332121" d="m240 185 5 1-2 4v-2h-4l1-3Z"/><path fill="#3B2926" d="M16 173c3.375.547 5.082 1.055 8 3h-2l-1 3-5-6Z"/><path fill="#674138" d="M196 51h12v1l-13 1 1-2Z"/><path fill="#352422" d="M367 45h2l-1.063 2.875c-1.287 2.996-1.287 2.996.063 5.125h-3c-.2-3.716-.152-4.772 2-8Z"/><path fill="#3A2725" d="m72 11-1 2h-2v2l-4-1 1-3c2.575-.997 3.49-1.255 6 0Z"/><path fill="#684D42" d="m125 383 7 2-1 2-6-1v-3Z"/><path fill="#70524B" d="m124 251 5 1-1 3-4-1v-3Z"/><path fill="#6D4F4B" d="m117 239 5 2-1 2-5-2 1-2Z"/><path fill="#684D42" d="m90 369 8 1v1c-2.875.125-2.875.125-6 0l-2-2Z"/><path fill="#664A3F" d="m69 360 4 2-4 1v-3Z"/><path fill="#6B4C44" d="m24 260-1 4-3-3c2-1 2-1 4-1Z"/><path fill="#6C4D45" d="M24 293h1v6l-2-2c.375-2.125.375-2.125 1-4Z"/><path fill="#5C3B34" d="m14 86 3 2v3l-2-1c-.625-2.063-.625-2.063-1-4Z"/><path fill="#654B3F" d="M87 368h2l1 3h-3v-3Z"/><path fill="#74534C" d="M306 270h2v5c-2-3-2-3-2-5Z"/><path fill="#62443E" d="m28 235 4 2-4 1v-3Z"/><path fill="#634038" d="m33 184 3 1v2l-3-1v-2Z"/><path fill="#5B3933" d="M24 131h4v2l-4-1v-1Z"/><path fill="#6A4E44" d="m262 384 4 1-1 2-3-3Z"/><path fill="#694A40" d="m36 326 2 4h-2v-4Z"/><path fill="#66453B" d="m363 205 5 1-4 1-1-2Z"/><path fill="#5C3934" d="m22 131 1 2 2 1-4-1 1-2Z"/><path fill="#613C35" d="m378 58 2 4h-2v-4Z"/><path fill="#6A4A42" d="M20 292h2l-1 4-1-4Z"/><path fill="#63443E" d="m46 227 2 3-3-1 1-2Z"/><path fill="#624037" d="M30 183h2l1 3h-2l-1-3Z"/><path fill="#5E3E37" d="m7 149 1 4-2-2 1-2Z"/><path fill="#56352F" d="m20 59 2 1v2h-2v-3Z"/><path fill="#6E5045" d="m172 381 3 1h-3v-1Z"/><path fill="#73554D" d="m307 350 1 4Z"/><path fill="#684940" d="m38 330 2 3h-2v-3Z"/><path fill="#654A42" d="m32 320 2 1-1 2-1-3Z"/><path fill="#64463A" d="m373 207 3 1-3 1v-2Z"/><path fill="#5E423A" d="m53 207 3 1-3 1v-2Z"/><path fill="#674535" d="m425 151 1 4Z"/><path fill="#633F33" d="M409 134h3l-1 2-2-2Z"/><path fill="#593831" d="m12 83 2 1-1 2-1-3Z"/><path fill="#634138" d="m292 60 1 4Z"/><path fill="#674239" d="m163 60 4 1Z"/><path fill="#65433A" d="M244 53h3l-1 2-2-2Z"/><path fill="#5D3A34" d="m63 49 1 2-3-1 2-1Z"/><path fill="#613F36" d="m300 43 2 3h-2v-3Z"/><path fill="#633F36" d="m303 43 2 1-2 2v-3Z"/><path fill="#623F36" d="m312 27 2 2-3-1 1-1Z"/><path fill="#603E37" d="M317 20v3Z"/><path fill="#6A4E43" d="m260 382 2 2h-2v-2Z"/><path fill="#6F5045" d="m239 370 3 1Z"/><path fill="#64463E" d="m34 235 2 1-2 1v-2Z"/><path fill="#5F423B" d="M60 207h2l-1 2-1-2Z"/><path fill="#6E4B43" d="m86 195 1 2-2-1 1-1Z"/><path fill="#5E3E38" d="m15 174 1 2-2-1 1-1Z"/><path fill="#5F3E37" d="m5 149 1 2-2-1 1-1Z"/><path fill="#593731" d="m28 123 2 1-2 1v-2Z"/><path fill="#5E3B34" d="m32 112 1 2-2-1 1-1Z"/><path fill="#68453C" d="m281 67 3 1Z"/><path fill="#5B3833" d="m52 55 3 1Z"/><path fill="#664239" d="m239 51 1 2-2-1 1-1Z"/><path fill="#603E35" d="m308 29 2 1-2 1v-2Z"/><path fill="#653C35" d="m111 19 1 2-2-1 1-1Z"/><path fill="#5F3E37" d="m340 6 3 1Z"/><path fill="#6E5345" d="m280 386 2 1Z"/><path fill="#664841" d="m28 318 2 1Z"/><path fill="#6A4A42" d="m20 259 2 1Z"/><path fill="#75554D" d="m129 251 2 1Z"/><path fill="#66443E" d="m42 230 2 1Z"/><path fill="#64443D" d="m66 206 2 1Z"/><path fill="#60413A" d="m49 206 2 1Z"/><path fill="#694438" d="m403 182 2 1Z"/><path fill="#614037" d="m28 182 2 1Z"/><path fill="#5F3F38" d="m12 172 2 1Z"/><path fill="#5E3E39" d="m5 155 2 1Z"/><path fill="#643F37" d="m13 139 2 1Z"/><path fill="#643F32" d="m407 133 2 1Z"/><path fill="#603B31" d="m398 131 2 1Z"/><path fill="#5D3A35" d="m28 109 2 1Z"/><path fill="#664137" d="m147 68 2 1Z"/><path fill="#5D3931" d="m50 61 2 1Z"/><path fill="#5D3A34" d="m382 60 2 1Z"/><path fill="#5E3A32" d="m396 59 2 1Z"/><path fill="#654238" d="m389 59 2 1Z"/><path fill="#65443B" d="m248 54 2 1Z"/><path fill="#644238" d="m250 53 2 1Z"/><path fill="#68423B" d="m187 53 2 1Z"/><path fill="#664037" d="m225 51 2 1Z"/><path fill="#5D3732" d="m58 51 2 1Z"/><path fill="#5C3733" d="m55 51 2 1Z"/><path fill="#593531" d="m52 51 2 1Z"/><path fill="#644038" d="m310 31 2 1Z"/><path fill="#5B3A35" d="m353 6 2 1Z"/><path fill="#583530" d="m83 6 2 1Z"/></svg>